<svg width="39" height="38" viewBox="0 0 39 38" fill="none" xmlns="http://www.w3.org/2000/svg">
<path d="M37.9317 23.5962C35.3941 33.7749 25.0847 39.9694 14.9049 37.4312C4.72925 34.8936 -1.46529 24.5836 1.07342 14.4058C3.60989 4.22596 13.9192 -1.96904 24.096 0.568545C34.2751 3.10613 40.4693 13.4172 37.9314 23.5964L37.9316 23.5962H37.9317Z" fill="#F7931A"/>
<path fill-rule="evenodd" clip-rule="evenodd" d="M27.8806 16.2928C28.2587 13.7643 26.3337 12.4051 23.7014 11.4985L24.5554 8.0734L22.4704 7.55388L21.6391 10.8888C21.091 10.7521 20.5281 10.6232 19.9687 10.4955L20.806 7.13866L18.7224 6.61914L17.868 10.0431C17.4144 9.93981 16.9689 9.83774 16.5367 9.7302L16.5391 9.71943L13.6639 9.00145L13.1093 11.2283C13.1093 11.2283 14.6561 11.5829 14.6235 11.6047C15.4678 11.8154 15.6205 12.3743 15.5951 12.8173L14.6224 16.7192C14.6806 16.734 14.756 16.7554 14.8392 16.7888L14.7786 16.7737L14.7785 16.7737C14.7271 16.7608 14.6737 16.7474 14.6188 16.7343L13.2554 22.2004C13.1522 22.4569 12.8903 22.8418 12.3 22.6956C12.3209 22.7259 10.7846 22.3175 10.7846 22.3175L9.74951 24.704L12.4627 25.3804C12.7599 25.4549 13.0535 25.5315 13.3442 25.6073C13.5472 25.6602 13.7489 25.7127 13.9492 25.764L13.0864 29.2283L15.169 29.7478L16.0234 26.3203C16.5923 26.4747 17.1444 26.6172 17.6849 26.7515L16.8334 30.1629L18.9184 30.6824L19.7811 27.2245C23.3363 27.8974 26.0096 27.6261 27.1348 24.4104C28.0415 21.8214 27.0897 20.328 25.2193 19.3542C26.5816 19.04 27.6077 18.144 27.8813 16.2931L27.8807 16.2926L27.8806 16.2928ZM23.117 22.9726C22.5258 25.3479 18.8077 24.3659 17.1066 23.9166L17.1065 23.9166C16.9535 23.8762 16.8168 23.8401 16.7002 23.8111L17.8451 19.2215C17.9872 19.2569 18.1609 19.2959 18.3577 19.3401L18.3578 19.3401C20.1174 19.735 23.7227 20.5441 23.1171 22.9726H23.117ZM18.7107 17.21C20.129 17.5885 23.2229 18.4142 23.7618 16.2553H23.762C24.3122 14.0472 21.3054 13.3815 19.8369 13.0564C19.6717 13.0198 19.5259 12.9876 19.4069 12.9579L18.3689 17.1204C18.4669 17.1449 18.5819 17.1756 18.7107 17.21Z" fill="white"/>
</svg>
