<svg width="151" height="48" viewBox="0 0 151 48" fill="none" xmlns="http://www.w3.org/2000/svg">
<path d="M31.4959 0H16.3492C12.0131 0 7.85464 1.72808 4.78857 4.80408C1.7225 7.88007 0 12.052 0 16.4021V31.5979C0 35.9479 1.7225 40.1199 4.78857 43.1959C7.85464 46.272 12.0131 48 16.3492 48H31.4959C33.6429 48.0002 35.7692 47.5761 37.7528 46.7521C39.7365 45.9278 41.539 44.7196 43.0571 43.1965C44.5753 41.6735 45.7796 39.8652 46.6012 37.8751C47.4226 35.885 47.8453 33.7518 47.8451 31.5979V16.4021C47.8451 14.2482 47.4222 12.1153 46.6006 10.1253C45.779 8.1353 44.5747 6.32716 43.0565 4.80408C41.5384 3.281 39.7361 2.07281 37.7524 1.24854C35.769 0.424254 33.6429 0 31.4959 0Z" fill="white"/>
<path d="M75.7781 21.7145V33.5948H72.4835V30.7908C70.8991 33.0589 68.6729 34.1328 65.555 34.1328C61.2997 34.1328 59.0552 31.4837 59.0552 28.3434C59.0552 25.4314 60.6233 23.573 63.597 22.6254C65.8313 21.9652 68.9939 21.5535 72.1097 21.1256C71.9838 18.4643 70.7732 17.2131 67.765 17.2131C65.7338 17.2131 63.8813 18.1056 63.2232 20.2494L59.7499 19.1775C60.6761 15.8742 63.3471 13.7651 67.7995 13.7651C71.2363 13.7651 73.9074 14.9083 75.1017 17.4454C75.707 18.7149 75.7781 20.1067 75.7781 21.7145ZM71.6812 27.2532C71.9838 26.3607 72.0549 25.1278 72.0732 24.2353C69.1706 24.6632 67.0155 24.9668 65.3966 25.4579C63.8651 25.9755 62.7418 26.7968 62.7418 28.3108C62.7418 29.8249 63.8285 31.0802 66.2152 31.0802C69.3839 31.0761 71.2546 29.1402 71.6812 27.2532Z" fill="white"/>
<path d="M90.0676 14.301V17.8019C88.8205 17.4636 87.1467 17.5696 85.8651 18.3929C84.037 19.5544 83.4418 21.5902 83.4418 23.8582V33.5948H79.6841V14.301H82.997V17.374C83.4233 16.579 84.0343 15.8989 84.7784 15.3912C86.2205 14.3193 88.3391 13.979 90.0676 14.301Z" fill="white"/>
<path d="M103.159 14.301V17.8019C101.912 17.4636 100.238 17.5696 98.9563 18.3929C97.1404 19.5544 96.5351 21.5902 96.5351 23.8582V33.5948H92.7773V14.301H96.0882V17.374C96.5158 16.5799 97.1266 15.9001 97.8696 15.3912C99.3117 14.3193 101.43 13.979 103.159 14.301Z" fill="white"/>
<path d="M105.682 9.33505C105.68 8.8739 105.814 8.42251 106.068 8.03798C106.322 7.65345 106.683 7.35306 107.107 7.17484C107.532 6.99659 107.998 6.94848 108.45 7.03663C108.901 7.12477 109.316 7.34518 109.642 7.66998C109.969 7.99478 110.192 8.40939 110.283 8.86133C110.374 9.31329 110.33 9.78226 110.156 10.209C109.981 10.6357 109.685 11.0009 109.304 11.2585C108.922 11.5161 108.473 11.6545 108.014 11.6561C107.707 11.663 107.403 11.6078 107.118 11.4938C106.833 11.3798 106.574 11.2094 106.356 10.9927C106.139 10.7761 105.967 10.5176 105.851 10.2328C105.735 9.94798 105.677 9.64263 105.682 9.33505ZM106.145 33.5949V14.3011H109.866V33.5949H106.145Z" fill="white"/>
<path d="M132.213 23.9319C132.213 29.7192 128.864 34.1331 123.505 34.1331C121.082 34.1331 119.159 33.2752 117.771 31.8283V33.5951H114.458V7.87012H118.198V15.6239C119.532 14.444 121.279 13.7654 123.432 13.7654C128.848 13.7654 132.213 18.1059 132.213 23.9319ZM128.259 23.9319C128.259 20.1437 126.567 17.142 122.864 17.142C119.356 17.142 117.771 19.9297 117.771 23.9319C117.771 27.9341 119.319 30.7544 122.988 30.7544C126.567 30.7544 128.259 27.7548 128.259 23.9319Z" fill="white"/>
<path d="M151 21.7145V33.5948H147.708V30.7908C146.121 33.0589 143.895 34.1328 140.779 34.1328C136.514 34.1328 134.279 31.4837 134.279 28.3434C134.279 25.4314 135.847 23.573 138.821 22.6254C141.055 21.9652 144.216 21.5535 147.332 21.1256C147.208 18.4643 145.997 17.2131 142.987 17.2131C140.956 17.2131 139.105 18.1056 138.447 20.2494L134.974 19.1775C135.9 15.8742 138.571 13.7651 143.024 13.7651C146.46 13.7651 149.131 14.9083 150.324 17.4454C150.929 18.7149 151 20.1067 151 21.7145ZM146.905 27.2532C147.208 26.3607 147.279 25.1278 147.297 24.2353C144.395 24.6632 142.24 24.9668 140.619 25.4579C139.087 25.9755 137.966 26.7968 137.966 28.3108C137.966 29.8249 139.053 31.0802 141.437 31.0802C144.608 31.0761 146.479 29.1402 146.905 27.2532Z" fill="white"/>
<path d="M21.4534 24.643L25.1867 33.0366L27.9086 28.6676L33.141 34.2959H35.2595L30.7421 24.107L25.723 12.8218H22.1217L19.1642 19.4833L12.5933 34.2959C16.4972 34.2959 18.5853 32.8939 21.4534 24.643Z" fill="black"/>
</svg>
