<svg width="203" height="64" viewBox="0 0 203 64" fill="none" xmlns="http://www.w3.org/2000/svg">
<path d="M42.3422 0H21.9794C16.1501 0 10.5595 2.3041 6.43762 6.40543C2.31568 10.5068 0 16.0693 0 21.8695V42.1305C0 47.9306 2.31568 53.4932 6.43762 57.5946C10.5595 61.6959 16.1501 64 21.9794 64H42.3422C45.2285 64.0003 48.087 63.4349 50.7538 62.3361C53.4206 61.237 55.8438 59.6261 57.8848 57.5954C59.9257 55.5647 61.5447 53.1536 62.6493 50.5001C63.7536 47.8466 64.3218 45.0024 64.3216 42.1305V21.8695C64.3216 18.9976 63.753 16.1537 62.6485 13.5004C61.5439 10.8471 59.9249 8.43621 57.8839 6.40543C55.843 4.37466 53.4201 2.76375 50.7533 1.66472C48.0867 0.565672 45.2285 0 42.3422 0Z" fill="black"/>
<path d="M101.874 28.953V44.7933H97.445V41.0547C95.315 44.0787 92.3222 45.5106 88.1306 45.5106C82.4098 45.5106 79.3923 41.9785 79.3923 37.7915C79.3923 33.9088 81.5004 31.4309 85.4982 30.1675C88.5019 29.2871 92.7536 28.7383 96.9425 28.1677C96.7732 24.6193 95.1457 22.951 91.1016 22.951C88.3709 22.951 85.8805 24.1411 84.9957 26.9994L80.3262 25.5702C81.5714 21.1659 85.1623 18.3538 91.148 18.3538C95.7683 18.3538 99.3592 19.878 100.965 23.2607C101.779 24.9535 101.874 26.8092 101.874 28.953ZM96.3663 36.3379C96.7732 35.1478 96.8688 33.504 96.8934 32.3139C92.9912 32.8845 90.0939 33.2894 87.9176 33.9442C85.8586 34.6343 84.3486 35.7293 84.3486 37.748C84.3486 39.7668 85.8095 41.4405 89.018 41.4405C93.2779 41.4351 95.7929 38.8539 96.3663 36.3379Z" fill="black"/>
<path d="M121.085 19.0683V23.7362C119.408 23.2852 117.158 23.4265 115.435 24.5241C112.977 26.0729 112.177 28.7872 112.177 31.8113V44.7933H107.125V19.0683H111.579V23.1656C112.152 22.1057 112.974 21.1989 113.974 20.5219C115.913 19.0928 118.761 18.639 121.085 19.0683Z" fill="black"/>
<path d="M138.684 19.0683V23.7362C137.007 23.2852 134.757 23.4265 133.034 24.5241C130.593 26.0729 129.779 28.7872 129.779 31.8113V44.7933H124.727V19.0683H129.178V23.1656C129.753 22.1069 130.574 21.2004 131.573 20.5219C133.512 19.0928 136.36 18.639 138.684 19.0683Z" fill="black"/>
<path d="M142.076 12.4468C142.073 11.8319 142.254 11.2301 142.595 10.7174C142.936 10.2047 143.422 9.80416 143.992 9.56653C144.562 9.32887 145.19 9.26472 145.797 9.38226C146.403 9.49977 146.961 9.79365 147.4 10.2267C147.838 10.6598 148.138 11.2126 148.261 11.8152C148.384 12.4178 148.324 13.0431 148.09 13.612C147.856 14.181 147.457 14.668 146.944 15.0115C146.432 15.3549 145.828 15.5394 145.21 15.5415C144.798 15.5507 144.389 15.4771 144.006 15.3251C143.623 15.1732 143.275 14.946 142.982 14.6571C142.689 14.3682 142.458 14.0236 142.302 13.6438C142.147 13.264 142.07 12.8569 142.076 12.4468ZM142.698 44.7932V19.0683H147.701V44.7932H142.698Z" fill="black"/>
<path d="M177.744 31.9089C177.744 39.6253 173.241 45.5104 166.037 45.5104C162.78 45.5104 160.194 44.3666 158.329 42.4375V44.7931H153.875V10.4932H158.902V20.8315C160.696 19.2584 163.044 18.3536 165.939 18.3536C173.219 18.3536 177.744 24.1409 177.744 31.9089ZM172.427 31.9089C172.427 26.8579 170.152 22.8557 165.174 22.8557C160.458 22.8557 158.329 26.5726 158.329 31.9089C158.329 37.2452 160.409 41.0056 165.341 41.0056C170.152 41.0056 172.427 37.0061 172.427 31.9089Z" fill="black"/>
<path d="M203 28.953V44.7933H198.574V41.0547C196.441 44.0787 193.448 45.5106 189.259 45.5106C183.525 45.5106 180.521 41.9785 180.521 37.7915C180.521 33.9088 182.629 31.4309 186.627 30.1675C189.631 29.2871 193.88 28.7383 198.068 28.1677C197.902 24.6193 196.274 22.951 192.227 22.951C189.497 22.951 187.009 24.1411 186.124 26.9994L181.455 25.5702C182.7 21.1659 186.291 18.3538 192.277 18.3538C196.897 18.3538 200.488 19.878 202.091 23.2607C202.905 24.9535 203 26.8092 203 28.953ZM197.495 36.3379C197.902 35.1478 197.997 33.504 198.022 32.3139C194.12 32.8845 191.223 33.2894 189.043 33.9442C186.985 34.6343 185.477 35.7293 185.477 37.748C185.477 39.7668 186.938 41.4405 190.144 41.4405C194.407 41.4351 196.922 38.8539 197.495 36.3379Z" fill="black"/>
<path d="M28.8417 32.8573L33.8607 44.0488L37.5199 38.2234L44.5541 45.7279H47.4023L41.3292 32.1427L34.5816 17.0957H29.7401L25.7642 25.9777L16.9304 45.7279C22.1788 45.7279 24.986 43.8586 28.8417 32.8573Z" fill="white"/>
</svg>
