<svg width="39" height="38" viewBox="0 0 39 38" fill="none" xmlns="http://www.w3.org/2000/svg">
<g clip-path="url(#clip0_1879_4265)">
<path d="M19.5 38C29.9934 38 38.5 29.4934 38.5 19C38.5 8.50659 29.9934 0 19.5 0C9.00659 0 0.5 8.50659 0.5 19C0.5 29.4934 9.00659 38 19.5 38Z" fill="#F0F0F0"/>
<path d="M38.5 18.9996C38.5 29.493 29.9933 37.9996 19.5 37.9996C9.00666 37.9996 0.5 29.493 0.5 18.9996C0.5 8.5063 19.5 18.9996 19.5 18.9996C19.5 18.9996 33.8807 18.9996 38.5 18.9996Z" fill="#D80027"/>
<path d="M0.5 19C0.5 8.50666 9.00666 0 19.5 0V19C19.5 19 7.10866 19 0.5 19Z" fill="#0052B4"/>
<path d="M11.8103 6.6084L13.0406 10.3949H17.0219L13.801 12.735L15.0312 16.5215L11.8103 14.1813L8.58933 16.5215L9.81958 12.735L6.59863 10.3949H10.5799L11.8103 6.6084Z" fill="#F0F0F0"/>
</g>
<defs>
<clipPath id="clip0_1879_4265">
<rect width="38" height="38" fill="white" transform="translate(0.5)"/>
</clipPath>
</defs>
</svg>
