<svg width="18" height="18" viewBox="0 0 18 18" fill="none" xmlns="http://www.w3.org/2000/svg">
<g clip-path="url(#clip0_1799_7953)">
<path d="M17.7806 0.220078C17.6399 0.0794748 17.4492 0.000488281 17.2503 0.000488281C17.0515 0.000488281 16.8607 0.0794748 16.7201 0.220078L9.00033 7.93983L1.28058 0.220078C1.13993 0.0794748 0.949201 0.000488281 0.750328 0.000488281C0.551455 0.000488281 0.360724 0.0794748 0.220078 0.220078C0.0794748 0.360724 0.000488281 0.551455 0.000488281 0.750328C0.000488281 0.949201 0.0794748 1.13993 0.220078 1.28058L7.93983 9.00033L0.220078 16.7201C0.0794748 16.8607 0.000488281 17.0515 0.000488281 17.2503C0.000488281 17.4492 0.0794748 17.6399 0.220078 17.7806C0.360724 17.9212 0.551455 18.0002 0.750328 18.0002C0.949201 18.0002 1.13993 17.9212 1.28058 17.7806L9.00033 10.0608L16.7201 17.7806C16.8607 17.9212 17.0515 18.0002 17.2503 18.0002C17.4492 18.0002 17.6399 17.9212 17.7806 17.7806C17.9212 17.6399 18.0002 17.4492 18.0002 17.2503C18.0002 17.0515 17.9212 16.8607 17.7806 16.7201L10.0608 9.00033L17.7806 1.28058C17.9212 1.13993 18.0002 0.949201 18.0002 0.750328C18.0002 0.551455 17.9212 0.360724 17.7806 0.220078Z" fill="black"/>
</g>
<defs>
<clipPath id="clip0_1799_7953">
<rect width="18" height="18" fill="white"/>
</clipPath>
</defs>
</svg>
