<svg width="109" height="37" viewBox="0 0 109 37" fill="none" xmlns="http://www.w3.org/2000/svg">
<rect width="108.21" height="37" fill="white"/>
<rect x="26.2104" y="36" width="25.2104" height="35" rx="12.6052" transform="rotate(180 26.2104 36)" stroke="black" stroke-width="2"/>
<rect x="15.8823" y="28.7451" width="4.55466" height="7.43137" rx="2.27733" transform="rotate(180 15.8823 28.7451)" stroke="black" stroke-width="2"/>
<path d="M38.3944 23.5V12.3H39.7384V17.244H45.5464V12.3H46.8904V23.5H45.5464V18.348H39.7384V23.5H38.3944ZM51.8138 23.692C51.1525 23.692 50.6032 23.58 50.1658 23.356C49.7285 23.132 49.4032 22.8333 49.1898 22.46C48.9765 22.0867 48.8698 21.6813 48.8698 21.244C48.8698 20.4333 49.1792 19.8093 49.7978 19.372C50.4165 18.9347 51.2592 18.716 52.3258 18.716H54.4698V18.62C54.4698 17.9267 54.2885 17.404 53.9258 17.052C53.5632 16.6893 53.0778 16.508 52.4698 16.508C51.9472 16.508 51.4938 16.6413 51.1098 16.908C50.7365 17.164 50.5018 17.5427 50.4058 18.044H49.0298C49.0832 17.468 49.2752 16.9827 49.6058 16.588C49.9472 16.1933 50.3685 15.8947 50.8698 15.692C51.3712 15.4787 51.9045 15.372 52.4698 15.372C53.5792 15.372 54.4112 15.6707 54.9658 16.268C55.5312 16.8547 55.8138 17.6387 55.8138 18.62V23.5H54.6138L54.5338 22.076C54.3098 22.524 53.9792 22.908 53.5418 23.228C53.1152 23.5373 52.5392 23.692 51.8138 23.692ZM52.0218 22.556C52.5338 22.556 52.9712 22.4227 53.3338 22.156C53.7072 21.8893 53.9898 21.5427 54.1818 21.116C54.3738 20.6893 54.4698 20.2413 54.4698 19.772V19.756H52.4378C51.6485 19.756 51.0885 19.8947 50.7578 20.172C50.4378 20.4387 50.2778 20.7747 50.2778 21.18C50.2778 21.596 50.4272 21.932 50.7258 22.188C51.0352 22.4333 51.4672 22.556 52.0218 22.556ZM57.2861 23.5V22.396L61.7021 16.684H57.3661V15.564H63.2061V16.668L58.7901 22.38H63.2861V23.5H57.2861ZM72.3388 23.692C71.3895 23.692 70.6002 23.452 69.9708 22.972C69.3415 22.492 68.9735 21.8413 68.8668 21.02H70.2428C70.3282 21.436 70.5468 21.7987 70.8988 22.108C71.2615 22.4067 71.7468 22.556 72.3548 22.556C72.9202 22.556 73.3362 22.4387 73.6028 22.204C73.8695 21.9587 74.0028 21.6707 74.0028 21.34C74.0028 20.86 73.8268 20.54 73.4748 20.38C73.1335 20.22 72.6482 20.076 72.0188 19.948C71.5922 19.8627 71.1655 19.74 70.7388 19.58C70.3122 19.42 69.9548 19.196 69.6668 18.908C69.3788 18.6093 69.2348 18.22 69.2348 17.74C69.2348 17.0467 69.4908 16.4813 70.0028 16.044C70.5255 15.596 71.2295 15.372 72.1148 15.372C72.9575 15.372 73.6455 15.5853 74.1788 16.012C74.7228 16.428 75.0375 17.0253 75.1228 17.804H73.7948C73.7415 17.3987 73.5655 17.084 73.2668 16.86C72.9788 16.6253 72.5895 16.508 72.0988 16.508C71.6188 16.508 71.2455 16.6093 70.9788 16.812C70.7228 17.0147 70.5948 17.2813 70.5948 17.612C70.5948 17.932 70.7602 18.1827 71.0908 18.364C71.4322 18.5453 71.8908 18.7 72.4668 18.828C72.9575 18.9347 73.4215 19.068 73.8588 19.228C74.3068 19.3773 74.6695 19.6067 74.9468 19.916C75.2348 20.2147 75.3788 20.652 75.3788 21.228C75.3895 21.9427 75.1175 22.5347 74.5628 23.004C74.0188 23.4627 73.2775 23.692 72.3388 23.692ZM80.9468 23.692C80.1895 23.692 79.5068 23.5213 78.8988 23.18C78.3015 22.828 77.8268 22.3427 77.4748 21.724C77.1335 21.0947 76.9628 20.364 76.9628 19.532C76.9628 18.7 77.1335 17.9747 77.4748 17.356C77.8268 16.7267 78.3015 16.2413 78.8988 15.9C79.5068 15.548 80.1895 15.372 80.9468 15.372C81.8855 15.372 82.6748 15.6173 83.3148 16.108C83.9655 16.5987 84.3762 17.2547 84.5468 18.076H83.1708C83.0642 17.5853 82.8028 17.2067 82.3868 16.94C81.9708 16.6627 81.4855 16.524 80.9308 16.524C80.4828 16.524 80.0615 16.636 79.6668 16.86C79.2722 17.084 78.9522 17.42 78.7068 17.868C78.4615 18.316 78.3388 18.8707 78.3388 19.532C78.3388 20.1933 78.4615 20.748 78.7068 21.196C78.9522 21.644 79.2722 21.9853 79.6668 22.22C80.0615 22.444 80.4828 22.556 80.9308 22.556C81.4855 22.556 81.9708 22.4227 82.3868 22.156C82.8028 21.8787 83.0642 21.4893 83.1708 20.988H84.5468C84.3868 21.788 83.9815 22.4387 83.3308 22.94C82.6802 23.4413 81.8855 23.692 80.9468 23.692ZM86.4238 23.5V15.564H87.6398L87.7518 17.084C87.9972 16.5613 88.3705 16.1453 88.8718 15.836C89.3732 15.5267 89.9918 15.372 90.7278 15.372V16.78H90.3598C89.8905 16.78 89.4585 16.8653 89.0638 17.036C88.6692 17.196 88.3545 17.4733 88.1198 17.868C87.8852 18.2627 87.7678 18.8067 87.7678 19.5V23.5H86.4238ZM95.5554 23.692C94.8088 23.692 94.1368 23.5213 93.5394 23.18C92.9421 22.8387 92.4674 22.3587 92.1154 21.74C91.7741 21.1107 91.6034 20.3747 91.6034 19.532C91.6034 18.6893 91.7794 17.9587 92.1314 17.34C92.4834 16.7107 92.9581 16.2253 93.5554 15.884C94.1634 15.5427 94.8408 15.372 95.5874 15.372C96.3341 15.372 97.0061 15.5427 97.6034 15.884C98.2008 16.2253 98.6701 16.7107 99.0114 17.34C99.3634 17.9587 99.5394 18.6893 99.5394 19.532C99.5394 20.3747 99.3634 21.1107 99.0114 21.74C98.6594 22.3587 98.1794 22.8387 97.5714 23.18C96.9741 23.5213 96.3021 23.692 95.5554 23.692ZM95.5554 22.54C96.0141 22.54 96.4408 22.428 96.8354 22.204C97.2301 21.98 97.5501 21.644 97.7954 21.196C98.0408 20.748 98.1634 20.1933 98.1634 19.532C98.1634 18.8707 98.0408 18.316 97.7954 17.868C97.5608 17.42 97.2461 17.084 96.8514 16.86C96.4568 16.636 96.0354 16.524 95.5874 16.524C95.1288 16.524 94.7021 16.636 94.3074 16.86C93.9128 17.084 93.5928 17.42 93.3474 17.868C93.1021 18.316 92.9794 18.8707 92.9794 19.532C92.9794 20.1933 93.1021 20.748 93.3474 21.196C93.5928 21.644 93.9074 21.98 94.2914 22.204C94.6861 22.428 95.1074 22.54 95.5554 22.54ZM101.408 23.5V11.98H102.752V23.5H101.408ZM104.955 23.5V11.98H106.299V23.5H104.955Z" fill="black"/>
</svg>
