<svg width="25" height="25" viewBox="0 0 25 25" fill="none" xmlns="http://www.w3.org/2000/svg">
<path d="M24.9399 12.44C21.6608 12.4347 18.5175 11.1298 16.1989 8.8111C13.8802 6.49242 12.5752 3.34911 12.5699 0.0700073C12.5699 0.0514422 12.5626 0.0336354 12.5494 0.0205078C12.5363 0.00738027 12.5186 0 12.5 0C12.4832 0.0024215 12.4678 0.0108682 12.4568 0.0237427C12.4458 0.0366172 12.4398 0.0530515 12.4399 0.0700073C12.4347 3.34911 11.1297 6.49242 8.81104 8.8111C6.49236 11.1298 3.34905 12.4347 0.0699463 12.44C0.0529905 12.4398 0.0365561 12.4458 0.0236816 12.4568C0.0108071 12.4679 0.0024215 12.4832 0 12.5C0 12.5186 0.0072582 12.5364 0.0203857 12.5495C0.0335133 12.5626 0.0513811 12.57 0.0699463 12.57C3.34905 12.5753 6.49236 13.8802 8.81104 16.1989C11.1297 18.5176 12.4347 21.6609 12.4399 24.94C12.4399 24.9559 12.4463 24.9712 12.4575 24.9824C12.4688 24.9937 12.4841 25 12.5 25C12.517 25.0002 12.5334 24.9942 12.5463 24.9832C12.5591 24.9721 12.5675 24.9568 12.5699 24.94C12.5752 21.6609 13.8802 18.5176 16.1989 16.1989C18.5175 13.8802 21.6608 12.5753 24.9399 12.57C24.9567 12.5676 24.972 12.5591 24.983 12.5463C24.9941 12.5334 25.0002 12.517 25 12.5C25 12.4841 24.9937 12.4688 24.9824 12.4576C24.9712 12.4463 24.9559 12.44 24.9399 12.44Z" fill="white"/>
</svg>
